<svg width="30" height="30" viewBox="0 0 30 30" fill="none" xmlns="http://www.w3.org/2000/svg">
<path d="M5.95422 12.1409L8.95386 12.094C8.97687 13.5689 9.53372 14.8043 10.6244 15.8004C11.7151 16.7955 13.0103 17.2814 14.5101 17.258C15.41 17.2439 16.2442 17.0249 17.0127 16.6008C17.7811 16.1758 18.4101 15.6219 18.8995 14.9392L16.4998 14.9766L16.4529 11.977L23.952 11.86L24.0691 19.3591L21.0694 19.4059L21.0331 17.0812C20.2481 18.0435 19.3039 18.8084 18.2006 19.3756C17.0963 19.9429 15.8818 20.2369 14.5569 20.2576C12.1822 20.2947 10.164 19.5261 8.50221 17.9518C6.83944 16.3776 5.99011 14.4406 5.95422 12.1409ZM14.7659 0.0018795C12.6911 0.0342597 10.7475 0.458642 8.93502 1.27502C7.12253 2.09041 5.55189 3.18355 4.22313 4.55445C2.89436 5.92535 1.85076 7.52934 1.09233 9.3664C0.332909 11.2035 -0.0306138 13.1594 0.00176637 15.2341C0.0341465 17.3089 0.458528 19.2525 1.27491 21.065C2.09029 22.8775 3.18344 24.4481 4.55434 25.7769C5.92524 27.1056 7.52923 28.1497 9.3663 28.9092C11.2034 29.6676 13.1593 30.0306 15.234 29.9982C17.3088 29.9658 19.2524 29.542 21.0649 28.7266C22.8774 27.9102 24.448 26.8166 25.7768 25.4457C27.1055 24.0748 28.1491 22.4708 28.9075 20.6337C29.667 18.7966 30.0305 16.8407 29.9981 14.766C29.9657 12.6912 29.5414 10.7476 28.725 8.93514C27.9096 7.12264 26.8164 5.55201 25.4455 4.22324C24.0746 2.89447 22.4707 1.85087 20.6336 1.09245C18.7965 0.333023 16.8406 -0.0305007 14.7659 0.0018795Z" fill="#FFFFFE"/>
</svg>
