<svg width="30" height="30" viewBox="0 0 30 30" fill="none" xmlns="http://www.w3.org/2000/svg">
<path d="M24.0458 12.1409L21.0461 12.094C21.0231 13.5689 20.4663 14.8043 19.3756 15.8004C18.2849 16.7955 16.9897 17.2814 15.4899 17.258C14.59 17.2439 13.7558 17.0249 12.9873 16.6008C12.2189 16.1758 11.5899 15.6219 11.1005 14.9392L13.5002 14.9766L13.5471 11.977L6.04797 11.86L5.93093 19.3591L8.93057 19.4059L8.96685 17.0812C9.75193 18.0435 10.6961 18.8084 11.7994 19.3756C12.9037 19.9429 14.1182 20.2369 15.4431 20.2576C17.8178 20.2947 19.836 19.5261 21.4978 17.9518C23.1606 16.3776 24.0099 14.4406 24.0458 12.1409ZM15.2341 0.0018795C17.3089 0.0342597 19.2525 0.458642 21.065 1.27502C22.8775 2.09041 24.4481 3.18355 25.7769 4.55445C27.1056 5.92535 28.1492 7.52934 28.9077 9.3664C29.6671 11.2035 30.0306 13.1594 29.9982 15.2341C29.9659 17.3089 29.5415 19.2525 28.7251 21.065C27.9097 22.8775 26.8166 24.4481 25.4457 25.7769C24.0748 27.1056 22.4708 28.1497 20.6337 28.9092C18.7966 29.6676 16.8407 30.0306 14.766 29.9982C12.6912 29.9658 10.7476 29.542 8.93512 28.7266C7.12264 27.9102 5.55201 26.8166 4.22324 25.4457C2.89448 24.0748 1.85088 22.4708 1.09245 20.6337C0.33303 18.7966 -0.0304934 16.8407 0.0018868 14.766C0.034267 12.6912 0.45865 10.7476 1.27503 8.93514C2.09041 7.12264 3.18356 5.55201 4.55446 4.22324C5.92536 2.89447 7.52934 1.85087 9.3664 1.09245C11.2035 0.333023 13.1594 -0.0305007 15.2341 0.0018795Z" fill="#FFFFFE"/>
</svg>
